<?xml version="1.0" encoding="UTF-8"?>
<svg xmlns="http://www.w3.org/2000/svg" xmlns:xlink="http://www.w3.org/1999/xlink" width="26px" height="26px" viewBox="0 0 26 26" version="1.1">
<g id="surface1">
<path style=" stroke:none;fill-rule:nonzero;fill:rgb(0%,0%,0%);fill-opacity:1;" d="M 8.667969 13 C 8.667969 14.195312 7.695312 15.167969 6.5 15.167969 C 5.304688 15.167969 4.332031 14.195312 4.332031 13 C 4.332031 11.804688 5.304688 10.832031 6.5 10.832031 C 7.695312 10.832031 8.667969 11.804688 8.667969 13 Z M 19.5 10.832031 C 18.304688 10.832031 17.332031 11.804688 17.332031 13 C 17.332031 14.195312 18.304688 15.167969 19.5 15.167969 C 20.695312 15.167969 21.667969 14.195312 21.667969 13 C 21.667969 11.804688 20.695312 10.832031 19.5 10.832031 Z M 13 10.832031 C 11.804688 10.832031 10.832031 11.804688 10.832031 13 C 10.832031 14.195312 11.804688 15.167969 13 15.167969 C 14.195312 15.167969 15.167969 14.195312 15.167969 13 C 15.167969 11.804688 14.195312 10.832031 13 10.832031 Z M 13 10.832031 "/>
</g>
</svg>
